<svg width="28" height="25" viewBox="0 0 28 25" fill="none" xmlns="http://www.w3.org/2000/svg">
<path d="M20.4167 0.235962C19.103 0.256396 17.8179 0.623124 16.6913 1.29911C15.5646 1.9751 14.6363 2.93641 14 4.08596C13.3638 2.93641 12.4355 1.9751 11.3088 1.29911C10.1822 0.623124 8.89709 0.256396 7.58337 0.235962C5.48913 0.326951 3.51602 1.24309 2.09511 2.78423C0.674202 4.32537 -0.0790096 6.36624 3.27192e-05 8.46096C3.27192e-05 13.7658 5.5837 19.5595 10.2667 23.4876C11.3123 24.3663 12.6343 24.848 14 24.848C15.3658 24.848 16.6878 24.3663 17.7334 23.4876C22.4164 19.5595 28 13.7658 28 8.46096C28.0791 6.36624 27.3259 4.32537 25.905 2.78423C24.484 1.24309 22.5109 0.326951 20.4167 0.235962ZM16.2342 21.7026C15.6088 22.2292 14.8176 22.518 14 22.518C13.1825 22.518 12.3912 22.2292 11.7659 21.7026C5.77153 16.6731 2.33337 11.8478 2.33337 8.46096C2.25361 6.9848 2.76079 5.53698 3.74429 4.43328C4.72779 3.32958 6.10781 2.65954 7.58337 2.5693C9.05893 2.65954 10.4389 3.32958 11.4224 4.43328C12.4059 5.53698 12.9131 6.9848 12.8334 8.46096C12.8334 8.77038 12.9563 9.06713 13.1751 9.28592C13.3939 9.50471 13.6906 9.62763 14 9.62763C14.3095 9.62763 14.6062 9.50471 14.825 9.28592C15.0438 9.06713 15.1667 8.77038 15.1667 8.46096C15.0869 6.9848 15.5941 5.53698 16.5776 4.43328C17.5611 3.32958 18.9411 2.65954 20.4167 2.5693C21.8923 2.65954 23.2723 3.32958 24.2558 4.43328C25.2393 5.53698 25.7465 6.9848 25.6667 8.46096C25.6667 11.8478 22.2285 16.6731 16.2342 21.698V21.7026Z" fill="#0E2954"/>
</svg>
