<svg width="246" height="35" viewBox="0 0 246 35" fill="none" xmlns="http://www.w3.org/2000/svg">
<mask id="path-1-outside-1_14_23" maskUnits="userSpaceOnUse" x="0" y="0" width="246" height="35" fill="black">
<rect fill="white" width="246" height="35"/>
<path d="M16.592 20.392H6.864L5.072 25.352H2L10.064 3.176H13.424L21.456 25.352H18.384L16.592 20.392ZM15.76 18.024L11.728 6.76L7.696 18.024H15.76Z"/>
<path d="M40.5225 7.816V25.352H37.6105V22.76C37.0558 23.656 36.2772 24.36 35.2745 24.872C34.2932 25.3627 33.2052 25.608 32.0105 25.608C30.6452 25.608 29.4185 25.3307 28.3305 24.776C27.2425 24.2 26.3785 23.3467 25.7385 22.216C25.1198 21.0853 24.8105 19.7093 24.8105 18.088V7.816H27.6905V17.704C27.6905 19.432 28.1278 20.7653 29.0025 21.704C29.8772 22.6213 31.0718 23.08 32.5865 23.08C34.1438 23.08 35.3705 22.6 36.2665 21.64C37.1625 20.68 37.6105 19.2827 37.6105 17.448V7.816H40.5225Z"/>
<path d="M44.3512 16.552C44.3512 14.7387 44.7139 13.16 45.4393 11.816C46.1646 10.4507 47.1673 9.39467 48.4473 8.648C49.7486 7.90133 51.2312 7.528 52.8952 7.528C55.0499 7.528 56.8206 8.05067 58.2072 9.096C59.6152 10.1413 60.5432 11.592 60.9912 13.448H57.8553C57.5566 12.3813 56.9699 11.5387 56.0952 10.92C55.2419 10.3013 54.1752 9.992 52.8952 9.992C51.2312 9.992 49.8873 10.568 48.8633 11.72C47.8393 12.8507 47.3273 14.4613 47.3273 16.552C47.3273 18.664 47.8393 20.296 48.8633 21.448C49.8873 22.6 51.2312 23.176 52.8952 23.176C54.1752 23.176 55.2419 22.8773 56.0952 22.28C56.9486 21.6827 57.5353 20.8293 57.8553 19.72H60.9912C60.5219 21.512 59.5833 22.952 58.1753 24.04C56.7673 25.1067 55.0072 25.64 52.8952 25.64C51.2312 25.64 49.7486 25.2667 48.4473 24.52C47.1673 23.7733 46.1646 22.7173 45.4393 21.352C44.7139 19.9867 44.3512 18.3867 44.3512 16.552Z"/>
<path d="M68.4287 10.216V20.552C68.4287 21.4053 68.6101 22.0133 68.9727 22.376C69.3354 22.7173 69.9647 22.888 70.8607 22.888H73.0048V25.352H70.3808C68.7594 25.352 67.5434 24.9787 66.7327 24.232C65.9221 23.4853 65.5168 22.2587 65.5168 20.552V10.216H63.2448V7.816H65.5168V3.4H68.4287V7.816H73.0048V10.216H68.4287Z"/>
<path d="M78.037 4.968C77.4823 4.968 77.013 4.776 76.629 4.392C76.245 4.008 76.053 3.53867 76.053 2.984C76.053 2.42933 76.245 1.96 76.629 1.576C77.013 1.192 77.4823 1 78.037 1C78.5703 1 79.0183 1.192 79.381 1.576C79.765 1.96 79.957 2.42933 79.957 2.984C79.957 3.53867 79.765 4.008 79.381 4.392C79.0183 4.776 78.5703 4.968 78.037 4.968ZM79.445 7.816V25.352H76.533V7.816H79.445Z"/>
<path d="M92.056 25.64C90.4133 25.64 88.92 25.2667 87.576 24.52C86.2533 23.7733 85.208 22.7173 84.44 21.352C83.6933 19.9653 83.32 18.3653 83.32 16.552C83.32 14.76 83.704 13.1813 84.472 11.816C85.2613 10.4293 86.328 9.37333 87.672 8.648C89.016 7.90133 90.52 7.528 92.184 7.528C93.848 7.528 95.352 7.90133 96.696 8.648C98.04 9.37333 99.096 10.4187 99.864 11.784C100.653 13.1493 101.048 14.7387 101.048 16.552C101.048 18.3653 100.643 19.9653 99.832 21.352C99.0427 22.7173 97.9653 23.7733 96.6 24.52C95.2347 25.2667 93.72 25.64 92.056 25.64ZM92.056 23.08C93.1013 23.08 94.0827 22.8347 95 22.344C95.9173 21.8533 96.6533 21.1173 97.208 20.136C97.784 19.1547 98.072 17.96 98.072 16.552C98.072 15.144 97.7947 13.9493 97.24 12.968C96.6853 11.9867 95.96 11.2613 95.064 10.792C94.168 10.3013 93.1973 10.056 92.152 10.056C91.0853 10.056 90.104 10.3013 89.208 10.792C88.3333 11.2613 87.6293 11.9867 87.096 12.968C86.5627 13.9493 86.296 15.144 86.296 16.552C86.296 17.9813 86.552 19.1867 87.064 20.168C87.5973 21.1493 88.3013 21.8853 89.176 22.376C90.0507 22.8453 91.0107 23.08 92.056 23.08Z"/>
<path d="M113.421 7.496C115.554 7.496 117.282 8.14667 118.605 9.448C119.927 10.728 120.589 12.584 120.589 15.016V25.352H117.709V15.432C117.709 13.6827 117.271 12.3493 116.397 11.432C115.522 10.4933 114.327 10.024 112.813 10.024C111.277 10.024 110.05 10.504 109.133 11.464C108.237 12.424 107.789 13.8213 107.789 15.656V25.352H104.877V7.816H107.789V10.312C108.365 9.416 109.143 8.72267 110.125 8.232C111.127 7.74133 112.226 7.496 113.421 7.496Z"/>
<path d="M139.074 10.216C138.711 9.61867 138.21 9.16 137.57 8.84C136.951 8.52 136.215 8.36 135.361 8.36C133.783 8.36 132.535 8.872 131.617 9.896C130.721 10.92 130.273 12.296 130.273 14.024C130.273 15.9653 130.754 17.448 131.714 18.472C132.695 19.4747 134.113 19.976 135.969 19.976C138.167 19.976 139.735 18.984 140.674 17H134.37V12.488H146.081V18.568C145.591 19.7627 144.866 20.8827 143.906 21.928C142.967 22.9733 141.772 23.8373 140.322 24.52C138.871 25.1813 137.217 25.512 135.361 25.512C133.1 25.512 131.095 25.032 129.345 24.072C127.617 23.0907 126.273 21.736 125.313 20.008C124.375 18.2587 123.906 16.264 123.906 14.024C123.906 11.8053 124.375 9.832 125.313 8.104C126.273 6.35467 127.617 5 129.345 4.04C131.073 3.05867 133.068 2.568 135.329 2.568C138.167 2.568 140.514 3.25067 142.37 4.616C144.226 5.98133 145.378 7.848 145.826 10.216H139.074Z"/>
<path d="M147.868 16.36C147.868 14.504 148.199 12.8827 148.86 11.496C149.543 10.1093 150.46 9.04267 151.612 8.296C152.786 7.54933 154.087 7.176 155.516 7.176C156.754 7.176 157.82 7.42133 158.716 7.912C159.612 8.40267 160.306 9.064 160.796 9.896V7.4H167.068V25.352H160.796V22.856C160.306 23.688 159.602 24.3493 158.684 24.84C157.788 25.3307 156.732 25.576 155.516 25.576C154.087 25.576 152.786 25.2027 151.612 24.456C150.46 23.7093 149.543 22.6427 148.86 21.256C148.199 19.848 147.868 18.216 147.868 16.36ZM160.796 16.36C160.796 15.208 160.476 14.3013 159.836 13.64C159.218 12.9787 158.45 12.648 157.532 12.648C156.594 12.648 155.815 12.9787 155.196 13.64C154.578 14.28 154.268 15.1867 154.268 16.36C154.268 17.512 154.578 18.4293 155.196 19.112C155.815 19.7733 156.594 20.104 157.532 20.104C158.45 20.104 159.218 19.7733 159.836 19.112C160.476 18.4507 160.796 17.5333 160.796 16.36Z"/>
<path d="M176.914 1.672V25.352H170.642V1.672H176.914Z"/>
<path d="M186.758 1.672V25.352H180.486V1.672H186.758Z"/>
<path d="M207.482 16.168C207.482 16.6587 207.45 17.1493 207.386 17.64H195.514C195.578 18.6213 195.844 19.3573 196.314 19.848C196.804 20.3173 197.423 20.552 198.17 20.552C199.215 20.552 199.962 20.0827 200.41 19.144H207.098C206.82 20.3813 206.276 21.4907 205.466 22.472C204.676 23.432 203.674 24.1893 202.458 24.744C201.242 25.2987 199.898 25.576 198.426 25.576C196.655 25.576 195.076 25.2027 193.69 24.456C192.324 23.7093 191.247 22.6427 190.458 21.256C189.69 19.8693 189.306 18.2373 189.306 16.36C189.306 14.4827 189.69 12.8613 190.458 11.496C191.226 10.1093 192.292 9.04267 193.658 8.296C195.044 7.54933 196.634 7.176 198.426 7.176C200.196 7.176 201.764 7.53867 203.13 8.264C204.495 8.98933 205.562 10.0347 206.33 11.4C207.098 12.744 207.482 14.3333 207.482 16.168ZM201.082 14.6C201.082 13.832 200.826 13.2347 200.314 12.808C199.802 12.36 199.162 12.136 198.394 12.136C197.626 12.136 196.996 12.3493 196.506 12.776C196.015 13.1813 195.695 13.7893 195.546 14.6H201.082Z"/>
<path d="M216.32 10.568C217.024 9.544 217.878 8.73333 218.88 8.136C219.883 7.53867 220.961 7.24 222.113 7.24V13.928H220.352C218.987 13.928 217.974 14.1947 217.312 14.728C216.651 15.2613 216.32 16.1893 216.32 17.512V25.352H210.048V7.4H216.32V10.568Z"/>
<path d="M243.689 7.4L232.297 33.896H225.481L229.769 24.584L222.409 7.4H229.385L233.161 17.576L236.809 7.4H243.689Z"/>
</mask>
<path d="M16.592 20.392H6.864L5.072 25.352H2L10.064 3.176H13.424L21.456 25.352H18.384L16.592 20.392ZM15.76 18.024L11.728 6.76L7.696 18.024H15.76Z" fill="#003EA4"/>
<path d="M40.5225 7.816V25.352H37.6105V22.76C37.0558 23.656 36.2772 24.36 35.2745 24.872C34.2932 25.3627 33.2052 25.608 32.0105 25.608C30.6452 25.608 29.4185 25.3307 28.3305 24.776C27.2425 24.2 26.3785 23.3467 25.7385 22.216C25.1198 21.0853 24.8105 19.7093 24.8105 18.088V7.816H27.6905V17.704C27.6905 19.432 28.1278 20.7653 29.0025 21.704C29.8772 22.6213 31.0718 23.08 32.5865 23.08C34.1438 23.08 35.3705 22.6 36.2665 21.64C37.1625 20.68 37.6105 19.2827 37.6105 17.448V7.816H40.5225Z" fill="#003EA4"/>
<path d="M44.3512 16.552C44.3512 14.7387 44.7139 13.16 45.4393 11.816C46.1646 10.4507 47.1673 9.39467 48.4473 8.648C49.7486 7.90133 51.2312 7.528 52.8952 7.528C55.0499 7.528 56.8206 8.05067 58.2072 9.096C59.6152 10.1413 60.5432 11.592 60.9912 13.448H57.8553C57.5566 12.3813 56.9699 11.5387 56.0952 10.92C55.2419 10.3013 54.1752 9.992 52.8952 9.992C51.2312 9.992 49.8873 10.568 48.8633 11.72C47.8393 12.8507 47.3273 14.4613 47.3273 16.552C47.3273 18.664 47.8393 20.296 48.8633 21.448C49.8873 22.6 51.2312 23.176 52.8952 23.176C54.1752 23.176 55.2419 22.8773 56.0952 22.28C56.9486 21.6827 57.5353 20.8293 57.8553 19.72H60.9912C60.5219 21.512 59.5833 22.952 58.1753 24.04C56.7673 25.1067 55.0072 25.64 52.8952 25.64C51.2312 25.64 49.7486 25.2667 48.4473 24.52C47.1673 23.7733 46.1646 22.7173 45.4393 21.352C44.7139 19.9867 44.3512 18.3867 44.3512 16.552Z" fill="#003EA4"/>
<path d="M68.4287 10.216V20.552C68.4287 21.4053 68.6101 22.0133 68.9727 22.376C69.3354 22.7173 69.9647 22.888 70.8607 22.888H73.0048V25.352H70.3808C68.7594 25.352 67.5434 24.9787 66.7327 24.232C65.9221 23.4853 65.5168 22.2587 65.5168 20.552V10.216H63.2448V7.816H65.5168V3.4H68.4287V7.816H73.0048V10.216H68.4287Z" fill="#003EA4"/>
<path d="M78.037 4.968C77.4823 4.968 77.013 4.776 76.629 4.392C76.245 4.008 76.053 3.53867 76.053 2.984C76.053 2.42933 76.245 1.96 76.629 1.576C77.013 1.192 77.4823 1 78.037 1C78.5703 1 79.0183 1.192 79.381 1.576C79.765 1.96 79.957 2.42933 79.957 2.984C79.957 3.53867 79.765 4.008 79.381 4.392C79.0183 4.776 78.5703 4.968 78.037 4.968ZM79.445 7.816V25.352H76.533V7.816H79.445Z" fill="#003EA4"/>
<path d="M92.056 25.64C90.4133 25.64 88.92 25.2667 87.576 24.52C86.2533 23.7733 85.208 22.7173 84.44 21.352C83.6933 19.9653 83.32 18.3653 83.32 16.552C83.32 14.76 83.704 13.1813 84.472 11.816C85.2613 10.4293 86.328 9.37333 87.672 8.648C89.016 7.90133 90.52 7.528 92.184 7.528C93.848 7.528 95.352 7.90133 96.696 8.648C98.04 9.37333 99.096 10.4187 99.864 11.784C100.653 13.1493 101.048 14.7387 101.048 16.552C101.048 18.3653 100.643 19.9653 99.832 21.352C99.0427 22.7173 97.9653 23.7733 96.6 24.52C95.2347 25.2667 93.72 25.64 92.056 25.64ZM92.056 23.08C93.1013 23.08 94.0827 22.8347 95 22.344C95.9173 21.8533 96.6533 21.1173 97.208 20.136C97.784 19.1547 98.072 17.96 98.072 16.552C98.072 15.144 97.7947 13.9493 97.24 12.968C96.6853 11.9867 95.96 11.2613 95.064 10.792C94.168 10.3013 93.1973 10.056 92.152 10.056C91.0853 10.056 90.104 10.3013 89.208 10.792C88.3333 11.2613 87.6293 11.9867 87.096 12.968C86.5627 13.9493 86.296 15.144 86.296 16.552C86.296 17.9813 86.552 19.1867 87.064 20.168C87.5973 21.1493 88.3013 21.8853 89.176 22.376C90.0507 22.8453 91.0107 23.08 92.056 23.08Z" fill="#003EA4"/>
<path d="M113.421 7.496C115.554 7.496 117.282 8.14667 118.605 9.448C119.927 10.728 120.589 12.584 120.589 15.016V25.352H117.709V15.432C117.709 13.6827 117.271 12.3493 116.397 11.432C115.522 10.4933 114.327 10.024 112.813 10.024C111.277 10.024 110.05 10.504 109.133 11.464C108.237 12.424 107.789 13.8213 107.789 15.656V25.352H104.877V7.816H107.789V10.312C108.365 9.416 109.143 8.72267 110.125 8.232C111.127 7.74133 112.226 7.496 113.421 7.496Z" fill="#003EA4"/>
<path d="M139.074 10.216C138.711 9.61867 138.21 9.16 137.57 8.84C136.951 8.52 136.215 8.36 135.361 8.36C133.783 8.36 132.535 8.872 131.617 9.896C130.721 10.92 130.273 12.296 130.273 14.024C130.273 15.9653 130.754 17.448 131.714 18.472C132.695 19.4747 134.113 19.976 135.969 19.976C138.167 19.976 139.735 18.984 140.674 17H134.37V12.488H146.081V18.568C145.591 19.7627 144.866 20.8827 143.906 21.928C142.967 22.9733 141.772 23.8373 140.322 24.52C138.871 25.1813 137.217 25.512 135.361 25.512C133.1 25.512 131.095 25.032 129.345 24.072C127.617 23.0907 126.273 21.736 125.313 20.008C124.375 18.2587 123.906 16.264 123.906 14.024C123.906 11.8053 124.375 9.832 125.313 8.104C126.273 6.35467 127.617 5 129.345 4.04C131.073 3.05867 133.068 2.568 135.329 2.568C138.167 2.568 140.514 3.25067 142.37 4.616C144.226 5.98133 145.378 7.848 145.826 10.216H139.074Z" fill="#FFD337"/>
<path d="M147.868 16.36C147.868 14.504 148.199 12.8827 148.86 11.496C149.543 10.1093 150.46 9.04267 151.612 8.296C152.786 7.54933 154.087 7.176 155.516 7.176C156.754 7.176 157.82 7.42133 158.716 7.912C159.612 8.40267 160.306 9.064 160.796 9.896V7.4H167.068V25.352H160.796V22.856C160.306 23.688 159.602 24.3493 158.684 24.84C157.788 25.3307 156.732 25.576 155.516 25.576C154.087 25.576 152.786 25.2027 151.612 24.456C150.46 23.7093 149.543 22.6427 148.86 21.256C148.199 19.848 147.868 18.216 147.868 16.36ZM160.796 16.36C160.796 15.208 160.476 14.3013 159.836 13.64C159.218 12.9787 158.45 12.648 157.532 12.648C156.594 12.648 155.815 12.9787 155.196 13.64C154.578 14.28 154.268 15.1867 154.268 16.36C154.268 17.512 154.578 18.4293 155.196 19.112C155.815 19.7733 156.594 20.104 157.532 20.104C158.45 20.104 159.218 19.7733 159.836 19.112C160.476 18.4507 160.796 17.5333 160.796 16.36Z" fill="#FFD337"/>
<path d="M176.914 1.672V25.352H170.642V1.672H176.914Z" fill="#FFD337"/>
<path d="M186.758 1.672V25.352H180.486V1.672H186.758Z" fill="#FFD337"/>
<path d="M207.482 16.168C207.482 16.6587 207.45 17.1493 207.386 17.64H195.514C195.578 18.6213 195.844 19.3573 196.314 19.848C196.804 20.3173 197.423 20.552 198.17 20.552C199.215 20.552 199.962 20.0827 200.41 19.144H207.098C206.82 20.3813 206.276 21.4907 205.466 22.472C204.676 23.432 203.674 24.1893 202.458 24.744C201.242 25.2987 199.898 25.576 198.426 25.576C196.655 25.576 195.076 25.2027 193.69 24.456C192.324 23.7093 191.247 22.6427 190.458 21.256C189.69 19.8693 189.306 18.2373 189.306 16.36C189.306 14.4827 189.69 12.8613 190.458 11.496C191.226 10.1093 192.292 9.04267 193.658 8.296C195.044 7.54933 196.634 7.176 198.426 7.176C200.196 7.176 201.764 7.53867 203.13 8.264C204.495 8.98933 205.562 10.0347 206.33 11.4C207.098 12.744 207.482 14.3333 207.482 16.168ZM201.082 14.6C201.082 13.832 200.826 13.2347 200.314 12.808C199.802 12.36 199.162 12.136 198.394 12.136C197.626 12.136 196.996 12.3493 196.506 12.776C196.015 13.1813 195.695 13.7893 195.546 14.6H201.082Z" fill="#FFD337"/>
<path d="M216.32 10.568C217.024 9.544 217.878 8.73333 218.88 8.136C219.883 7.53867 220.961 7.24 222.113 7.24V13.928H220.352C218.987 13.928 217.974 14.1947 217.312 14.728C216.651 15.2613 216.32 16.1893 216.32 17.512V25.352H210.048V7.4H216.32V10.568Z" fill="#FFD337"/>
<path d="M243.689 7.4L232.297 33.896H225.481L229.769 24.584L222.409 7.4H229.385L233.161 17.576L236.809 7.4H243.689Z" fill="#FFD337"/>
<path d="M16.592 20.392H6.864L5.072 25.352H2L10.064 3.176H13.424L21.456 25.352H18.384L16.592 20.392ZM15.76 18.024L11.728 6.76L7.696 18.024H15.76Z" stroke="black" stroke-width="2" mask="url(#path-1-outside-1_14_23)"/>
<path d="M40.5225 7.816V25.352H37.6105V22.76C37.0558 23.656 36.2772 24.36 35.2745 24.872C34.2932 25.3627 33.2052 25.608 32.0105 25.608C30.6452 25.608 29.4185 25.3307 28.3305 24.776C27.2425 24.2 26.3785 23.3467 25.7385 22.216C25.1198 21.0853 24.8105 19.7093 24.8105 18.088V7.816H27.6905V17.704C27.6905 19.432 28.1278 20.7653 29.0025 21.704C29.8772 22.6213 31.0718 23.08 32.5865 23.08C34.1438 23.08 35.3705 22.6 36.2665 21.64C37.1625 20.68 37.6105 19.2827 37.6105 17.448V7.816H40.5225Z" stroke="black" stroke-width="2" mask="url(#path-1-outside-1_14_23)"/>
<path d="M44.3512 16.552C44.3512 14.7387 44.7139 13.16 45.4393 11.816C46.1646 10.4507 47.1673 9.39467 48.4473 8.648C49.7486 7.90133 51.2312 7.528 52.8952 7.528C55.0499 7.528 56.8206 8.05067 58.2072 9.096C59.6152 10.1413 60.5432 11.592 60.9912 13.448H57.8553C57.5566 12.3813 56.9699 11.5387 56.0952 10.92C55.2419 10.3013 54.1752 9.992 52.8952 9.992C51.2312 9.992 49.8873 10.568 48.8633 11.72C47.8393 12.8507 47.3273 14.4613 47.3273 16.552C47.3273 18.664 47.8393 20.296 48.8633 21.448C49.8873 22.6 51.2312 23.176 52.8952 23.176C54.1752 23.176 55.2419 22.8773 56.0952 22.28C56.9486 21.6827 57.5353 20.8293 57.8553 19.72H60.9912C60.5219 21.512 59.5833 22.952 58.1753 24.04C56.7673 25.1067 55.0072 25.64 52.8952 25.64C51.2312 25.64 49.7486 25.2667 48.4473 24.52C47.1673 23.7733 46.1646 22.7173 45.4393 21.352C44.7139 19.9867 44.3512 18.3867 44.3512 16.552Z" stroke="black" stroke-width="2" mask="url(#path-1-outside-1_14_23)"/>
<path d="M68.4287 10.216V20.552C68.4287 21.4053 68.6101 22.0133 68.9727 22.376C69.3354 22.7173 69.9647 22.888 70.8607 22.888H73.0048V25.352H70.3808C68.7594 25.352 67.5434 24.9787 66.7327 24.232C65.9221 23.4853 65.5168 22.2587 65.5168 20.552V10.216H63.2448V7.816H65.5168V3.4H68.4287V7.816H73.0048V10.216H68.4287Z" stroke="black" stroke-width="2" mask="url(#path-1-outside-1_14_23)"/>
<path d="M78.037 4.968C77.4823 4.968 77.013 4.776 76.629 4.392C76.245 4.008 76.053 3.53867 76.053 2.984C76.053 2.42933 76.245 1.96 76.629 1.576C77.013 1.192 77.4823 1 78.037 1C78.5703 1 79.0183 1.192 79.381 1.576C79.765 1.96 79.957 2.42933 79.957 2.984C79.957 3.53867 79.765 4.008 79.381 4.392C79.0183 4.776 78.5703 4.968 78.037 4.968ZM79.445 7.816V25.352H76.533V7.816H79.445Z" stroke="black" stroke-width="2" mask="url(#path-1-outside-1_14_23)"/>
<path d="M92.056 25.64C90.4133 25.64 88.92 25.2667 87.576 24.52C86.2533 23.7733 85.208 22.7173 84.44 21.352C83.6933 19.9653 83.32 18.3653 83.32 16.552C83.32 14.76 83.704 13.1813 84.472 11.816C85.2613 10.4293 86.328 9.37333 87.672 8.648C89.016 7.90133 90.52 7.528 92.184 7.528C93.848 7.528 95.352 7.90133 96.696 8.648C98.04 9.37333 99.096 10.4187 99.864 11.784C100.653 13.1493 101.048 14.7387 101.048 16.552C101.048 18.3653 100.643 19.9653 99.832 21.352C99.0427 22.7173 97.9653 23.7733 96.6 24.52C95.2347 25.2667 93.72 25.64 92.056 25.64ZM92.056 23.08C93.1013 23.08 94.0827 22.8347 95 22.344C95.9173 21.8533 96.6533 21.1173 97.208 20.136C97.784 19.1547 98.072 17.96 98.072 16.552C98.072 15.144 97.7947 13.9493 97.24 12.968C96.6853 11.9867 95.96 11.2613 95.064 10.792C94.168 10.3013 93.1973 10.056 92.152 10.056C91.0853 10.056 90.104 10.3013 89.208 10.792C88.3333 11.2613 87.6293 11.9867 87.096 12.968C86.5627 13.9493 86.296 15.144 86.296 16.552C86.296 17.9813 86.552 19.1867 87.064 20.168C87.5973 21.1493 88.3013 21.8853 89.176 22.376C90.0507 22.8453 91.0107 23.08 92.056 23.08Z" stroke="black" stroke-width="2" mask="url(#path-1-outside-1_14_23)"/>
<path d="M113.421 7.496C115.554 7.496 117.282 8.14667 118.605 9.448C119.927 10.728 120.589 12.584 120.589 15.016V25.352H117.709V15.432C117.709 13.6827 117.271 12.3493 116.397 11.432C115.522 10.4933 114.327 10.024 112.813 10.024C111.277 10.024 110.05 10.504 109.133 11.464C108.237 12.424 107.789 13.8213 107.789 15.656V25.352H104.877V7.816H107.789V10.312C108.365 9.416 109.143 8.72267 110.125 8.232C111.127 7.74133 112.226 7.496 113.421 7.496Z" stroke="black" stroke-width="2" mask="url(#path-1-outside-1_14_23)"/>
<path d="M139.074 10.216C138.711 9.61867 138.21 9.16 137.57 8.84C136.951 8.52 136.215 8.36 135.361 8.36C133.783 8.36 132.535 8.872 131.617 9.896C130.721 10.92 130.273 12.296 130.273 14.024C130.273 15.9653 130.754 17.448 131.714 18.472C132.695 19.4747 134.113 19.976 135.969 19.976C138.167 19.976 139.735 18.984 140.674 17H134.37V12.488H146.081V18.568C145.591 19.7627 144.866 20.8827 143.906 21.928C142.967 22.9733 141.772 23.8373 140.322 24.52C138.871 25.1813 137.217 25.512 135.361 25.512C133.1 25.512 131.095 25.032 129.345 24.072C127.617 23.0907 126.273 21.736 125.313 20.008C124.375 18.2587 123.906 16.264 123.906 14.024C123.906 11.8053 124.375 9.832 125.313 8.104C126.273 6.35467 127.617 5 129.345 4.04C131.073 3.05867 133.068 2.568 135.329 2.568C138.167 2.568 140.514 3.25067 142.37 4.616C144.226 5.98133 145.378 7.848 145.826 10.216H139.074Z" stroke="black" stroke-width="2" mask="url(#path-1-outside-1_14_23)"/>
<path d="M147.868 16.36C147.868 14.504 148.199 12.8827 148.86 11.496C149.543 10.1093 150.46 9.04267 151.612 8.296C152.786 7.54933 154.087 7.176 155.516 7.176C156.754 7.176 157.82 7.42133 158.716 7.912C159.612 8.40267 160.306 9.064 160.796 9.896V7.4H167.068V25.352H160.796V22.856C160.306 23.688 159.602 24.3493 158.684 24.84C157.788 25.3307 156.732 25.576 155.516 25.576C154.087 25.576 152.786 25.2027 151.612 24.456C150.46 23.7093 149.543 22.6427 148.86 21.256C148.199 19.848 147.868 18.216 147.868 16.36ZM160.796 16.36C160.796 15.208 160.476 14.3013 159.836 13.64C159.218 12.9787 158.45 12.648 157.532 12.648C156.594 12.648 155.815 12.9787 155.196 13.64C154.578 14.28 154.268 15.1867 154.268 16.36C154.268 17.512 154.578 18.4293 155.196 19.112C155.815 19.7733 156.594 20.104 157.532 20.104C158.45 20.104 159.218 19.7733 159.836 19.112C160.476 18.4507 160.796 17.5333 160.796 16.36Z" stroke="black" stroke-width="2" mask="url(#path-1-outside-1_14_23)"/>
<path d="M176.914 1.672V25.352H170.642V1.672H176.914Z" stroke="black" stroke-width="2" mask="url(#path-1-outside-1_14_23)"/>
<path d="M186.758 1.672V25.352H180.486V1.672H186.758Z" stroke="black" stroke-width="2" mask="url(#path-1-outside-1_14_23)"/>
<path d="M207.482 16.168C207.482 16.6587 207.45 17.1493 207.386 17.64H195.514C195.578 18.6213 195.844 19.3573 196.314 19.848C196.804 20.3173 197.423 20.552 198.17 20.552C199.215 20.552 199.962 20.0827 200.41 19.144H207.098C206.82 20.3813 206.276 21.4907 205.466 22.472C204.676 23.432 203.674 24.1893 202.458 24.744C201.242 25.2987 199.898 25.576 198.426 25.576C196.655 25.576 195.076 25.2027 193.69 24.456C192.324 23.7093 191.247 22.6427 190.458 21.256C189.69 19.8693 189.306 18.2373 189.306 16.36C189.306 14.4827 189.69 12.8613 190.458 11.496C191.226 10.1093 192.292 9.04267 193.658 8.296C195.044 7.54933 196.634 7.176 198.426 7.176C200.196 7.176 201.764 7.53867 203.13 8.264C204.495 8.98933 205.562 10.0347 206.33 11.4C207.098 12.744 207.482 14.3333 207.482 16.168ZM201.082 14.6C201.082 13.832 200.826 13.2347 200.314 12.808C199.802 12.36 199.162 12.136 198.394 12.136C197.626 12.136 196.996 12.3493 196.506 12.776C196.015 13.1813 195.695 13.7893 195.546 14.6H201.082Z" stroke="black" stroke-width="2" mask="url(#path-1-outside-1_14_23)"/>
<path d="M216.32 10.568C217.024 9.544 217.878 8.73333 218.88 8.136C219.883 7.53867 220.961 7.24 222.113 7.24V13.928H220.352C218.987 13.928 217.974 14.1947 217.312 14.728C216.651 15.2613 216.32 16.1893 216.32 17.512V25.352H210.048V7.4H216.32V10.568Z" stroke="black" stroke-width="2" mask="url(#path-1-outside-1_14_23)"/>
<path d="M243.689 7.4L232.297 33.896H225.481L229.769 24.584L222.409 7.4H229.385L233.161 17.576L236.809 7.4H243.689Z" stroke="black" stroke-width="2" mask="url(#path-1-outside-1_14_23)"/>
</svg>
